<?xml version="1.0" encoding="utf-8"?>
<!-- Generator: Adobe Illustrator 22.0.1, SVG Export Plug-In . SVG Version: 6.00 Build 0)  -->
<svg version="1.1" id="Layer_1" xmlns="http://www.w3.org/2000/svg" xmlns:xlink="http://www.w3.org/1999/xlink" x="0px" y="0px"
	 viewBox="0 0 339.6 53.3" style="enable-background:new 0 0 339.6 53.3;" xml:space="preserve">
<style type="text/css">
	.st0{fill:#FFFFFF;}
</style>
<g>
	<path class="st0" d="M13.9,8.8v35.6h1.2c2.1,0,3.9,1.7,3.9,3.9c0,2.1-1.7,3.9-3.9,3.9H3.9c-2.1,0-3.9-1.7-3.9-3.9
		c0-2.1,1.7-3.9,3.9-3.9h1.2V8.8H3.9C1.7,8.8,0,7.1,0,4.9c0-2.1,1.7-3.9,3.9-3.9h11.2c2.1,0,3.9,1.7,3.9,3.9c0,2.1-1.7,3.9-3.9,3.9
		H13.9z"/>
	<path class="st0" d="M54.8,40.9c-1.5,0-2.9-0.8-3.7-2.1L39.1,20.1v24.4h1.3c2.1,0,3.9,1.7,3.9,3.9c0,2.1-1.7,3.9-3.9,3.9H29.2
		c-2.1,0-3.9-1.7-3.9-3.9c0-2.1,1.7-3.9,3.9-3.9h1.3V8.8h-1.3c-2.1,0-3.9-1.7-3.9-3.9c0-2.1,1.7-3.9,3.9-3.9h6.1
		c2.1,0,3.5,1.3,4.3,2.7l15.2,25L70.3,3.2c0.8-1.4,1.9-2.1,4-2.1h6.1c2.1,0,3.9,1.7,3.9,3.9c0,2.1-1.7,3.9-3.9,3.9h-1.3v35.6h1.3
		c2.1,0,3.9,1.7,3.9,3.9c0,2.1-1.7,3.9-3.9,3.9H69.2c-2.1,0-3.9-1.7-3.9-3.9c0-2.1,1.7-3.9,3.9-3.9h1.3V20.1L58.5,38.8
		C57.7,40.1,56.3,40.9,54.8,40.9z"/>
	<path class="st0" d="M123.6,52.2c-2.1,0-3.9-1.7-3.9-3.9c0-2.1,1.7-3.9,3.9-3.9h1.2l-2.2-5.6h-18.1l-2.3,5.6h1.1
		c2.1,0,3.9,1.7,3.9,3.9c0,2.1-1.7,3.9-3.9,3.9H91.9c-2.1,0-3.9-1.7-3.9-3.9c0-2.1,1.7-3.9,3.9-3.9H93l14.2-35.6h-1.6
		c-2.1,0-3.9-1.7-3.9-3.9c0-2.1,1.7-3.9,3.9-3.9h8.2c1.6,0,3.3,1.1,4,2.7l16.3,40.7h1c2.1,0,3.9,1.7,3.9,3.9c0,2.1-1.7,3.9-3.9,3.9
		H123.6z M107.4,30.9h12.2l-6.1-16.7L107.4,30.9z"/>
	<path class="st0" d="M176.5,32.5h-10.3c-2.1,0-3.9-1.7-3.9-3.9c0-2.1,1.7-3.9,3.9-3.9H181c2.1,0,4.2,1.8,4.2,4V41
		c0,1.7-0.4,2.9-1.3,4c-3.6,4.9-11.7,8.3-19.8,8.3c-15.1,0-23.8-8-23.8-26.6c0-18,8.7-26.7,23.8-26.7c9.2,0,15.2,3.6,18.3,8.2
		c0.6,0.9,0.8,1.7,0.8,2.5c0,2.2-1.8,4-4.1,4c-1.1,0-2.1-0.5-3.1-1.5c-3.1-3.4-6.4-5.3-11.9-5.3c-10.1,0-14.7,6.2-14.7,18.8
		c0,13.3,4.6,18.7,14.7,18.7c5.6,0,9.6-1.3,12.5-4.3V32.5z"/>
	<path class="st0" d="M194.6,33.7c-0.4,0-0.6-0.3-0.6-0.6c0-0.3,0.2-0.6,0.6-0.6h13.9c0.4,0,0.6,0.3,0.6,0.6c0,0.3-0.2,0.6-0.6,0.6
		H194.6z"/>
	<path class="st0" d="M225.3,2.3V51h4.8c0.3,0,0.6,0.3,0.6,0.6c0,0.3-0.3,0.6-0.6,0.6h-10.9c-0.3,0-0.6-0.3-0.6-0.6
		c0-0.3,0.3-0.6,0.6-0.6h4.8V2.3h-4.8c-0.3,0-0.6-0.3-0.6-0.6c0-0.3,0.3-0.6,0.6-0.6h10.9c0.3,0,0.6,0.3,0.6,0.6
		c0,0.3-0.3,0.6-0.6,0.6H225.3z"/>
	<path class="st0" d="M241.1,52.2c-0.3,0-0.6-0.3-0.6-0.6c0-0.3,0.3-0.6,0.6-0.6h4.8V2.3h-4.8c-0.3,0-0.6-0.3-0.6-0.6
		c0-0.3,0.3-0.6,0.6-0.6h5.8c0.2,0,0.5,0.1,0.6,0.3l31.2,48.4V2.3h-4.8c-0.3,0-0.6-0.3-0.6-0.6c0-0.3,0.3-0.6,0.6-0.6h10.9
		c0.3,0,0.6,0.3,0.6,0.6c0,0.3-0.3,0.6-0.6,0.6H280v49.9c0,0.4-0.3,0.7-0.7,0.7c-0.3,0-0.5-0.2-0.7-0.4L247.2,3.5V51h4.8
		c0.3,0,0.6,0.3,0.6,0.6c0,0.3-0.3,0.6-0.6,0.6H241.1z"/>
	<path class="st0" d="M295.3,52.2c-0.3,0-0.6-0.3-0.6-0.6c0-0.3,0.3-0.6,0.6-0.6h4.8V2.3h-4.8c-0.3,0-0.6-0.3-0.6-0.6
		c0-0.3,0.3-0.6,0.6-0.6h5.8c0.2,0,0.5,0.1,0.6,0.3l31.2,48.4V2.3H328c-0.3,0-0.6-0.3-0.6-0.6c0-0.3,0.3-0.6,0.6-0.6H339
		c0.3,0,0.6,0.3,0.6,0.6c0,0.3-0.3,0.6-0.6,0.6h-4.8v49.9c0,0.4-0.3,0.7-0.7,0.7c-0.3,0-0.5-0.2-0.7-0.4L301.4,3.5V51h4.8
		c0.3,0,0.6,0.3,0.6,0.6c0,0.3-0.3,0.6-0.6,0.6H295.3z"/>
</g>
</svg>
