<svg id="Layer_1" data-name="Layer 1" xmlns="http://www.w3.org/2000/svg" viewBox="0 0 456.21 111.73"><defs><style>.cls-1{font-size:23px;fill:#231f20;font-weight:700;}.cls-1,.cls-66{font-family:Noteworthy-Bold, Noteworthy;}.cls-10,.cls-11,.cls-12,.cls-13,.cls-14,.cls-15,.cls-16,.cls-17,.cls-18,.cls-19,.cls-2,.cls-20,.cls-21,.cls-22,.cls-23,.cls-24,.cls-25,.cls-3,.cls-4,.cls-42,.cls-5,.cls-6,.cls-7,.cls-8,.cls-9{font-family:ChaparralPro-BoldIt, Chaparral Pro;}.cls-10,.cls-11,.cls-12,.cls-13,.cls-14,.cls-15,.cls-16,.cls-17,.cls-18,.cls-19,.cls-2,.cls-20,.cls-21,.cls-22,.cls-23,.cls-24,.cls-25,.cls-3,.cls-4,.cls-43,.cls-44,.cls-45,.cls-46,.cls-47,.cls-48,.cls-49,.cls-5,.cls-50,.cls-51,.cls-52,.cls-53,.cls-54,.cls-55,.cls-56,.cls-57,.cls-58,.cls-59,.cls-6,.cls-60,.cls-61,.cls-62,.cls-63,.cls-64,.cls-65,.cls-7,.cls-8,.cls-9{font-style:italic;}.cls-2{letter-spacing:0.01em;}.cls-3,.cls-30,.cls-57{letter-spacing:0em;}.cls-4{letter-spacing:0em;}.cls-35,.cls-46,.cls-5{letter-spacing:0em;}.cls-6{letter-spacing:0.01em;}.cls-7{letter-spacing:-0.02em;}.cls-9{letter-spacing:0.03em;}.cls-10,.cls-33{letter-spacing:-0.01em;}.cls-11,.cls-31,.cls-47{letter-spacing:0em;}.cls-12,.cls-34,.cls-60{letter-spacing:0em;}.cls-13,.cls-45{letter-spacing:0em;}.cls-14{letter-spacing:0.01em;}.cls-15{letter-spacing:0.02em;}.cls-16{letter-spacing:0.03em;}.cls-17{letter-spacing:0em;}.cls-18,.cls-62,.cls-66{letter-spacing:0em;}.cls-19,.cls-37,.cls-56{letter-spacing:0em;}.cls-20,.cls-26,.cls-50{letter-spacing:0em;}.cls-21{letter-spacing:0.01em;}.cls-22,.cls-39{letter-spacing:-0.02em;}.cls-23{letter-spacing:0.01em;}.cls-24,.cls-36{letter-spacing:0em;}.cls-25{letter-spacing:-0.01em;}.cls-27{letter-spacing:0em;}.cls-28{letter-spacing:-0.01em;}.cls-29,.cls-52{letter-spacing:0em;}.cls-32{letter-spacing:0.01em;}.cls-38{letter-spacing:0em;}.cls-40{letter-spacing:0em;}.cls-41{letter-spacing:0.02em;}.cls-44{letter-spacing:0em;}.cls-48{letter-spacing:0em;}.cls-49{letter-spacing:0em;}.cls-51{letter-spacing:-0.01em;}.cls-53{letter-spacing:-0.01em;}.cls-54{letter-spacing:0.01em;}.cls-55{letter-spacing:-0.02em;}.cls-58{letter-spacing:0em;}.cls-59{letter-spacing:0.01em;}.cls-61{letter-spacing:0em;}.cls-63{letter-spacing:-0.01em;}.cls-64{letter-spacing:0em;}.cls-65{letter-spacing:0.01em;}.cls-67{letter-spacing:1.38em;}.cls-68{letter-spacing:0em;}.cls-69{letter-spacing:-0.03em;}</style></defs><title>Untitled-1</title><text class="cls-1" transform="translate(0 21.48)">“<tspan class="cls-2" x="9.14" y="0">I</tspan><tspan class="cls-3" x="17.81" y="0">t</tspan><tspan class="cls-4" x="27.33" y="0">s </tspan><tspan class="cls-5" x="41.23" y="0">c</tspan><tspan class="cls-6" x="51.02" y="0">a</tspan><tspan class="cls-7" x="63.56" y="0">f</tspan><tspan class="cls-8" x="71.56" y="0">e </tspan><tspan class="cls-3" x="86.77" y="0">se</tspan><tspan class="cls-9" x="107.72" y="0">r</tspan><tspan class="cls-10" x="118.41" y="0">v</tspan><tspan class="cls-11" x="129.84" y="0">e</tspan><tspan class="cls-8" x="140.91" y="0">s </tspan><tspan class="cls-5" x="154.8" y="0">t</tspan><tspan class="cls-12" x="164.16" y="0">h</tspan><tspan class="cls-13" x="176.81" y="0">e </tspan><tspan class="cls-14" x="192.01" y="0">c</tspan><tspan class="cls-8" x="202.2" y="0">i</tspan><tspan class="cls-15" x="209.26" y="0">t</tspan><tspan class="cls-16" x="219.13" y="0">y</tspan><tspan class="cls-17" x="231.13" y="0">’</tspan><tspan class="cls-18" x="236.7" y="0">s b</tspan><tspan class="cls-19" x="262.9" y="0">e</tspan><tspan class="cls-20" x="273.96" y="0">s</tspan><tspan class="cls-8" x="283.73" y="0">t </tspan><tspan class="cls-21" x="297.33" y="0">c</tspan><tspan class="cls-22" x="307.52" y="0">r</tspan><tspan class="cls-23" x="317.06" y="0">a</tspan><tspan class="cls-3" x="329.59" y="0">f</tspan><tspan class="cls-18" x="338.06" y="0">t l</tspan><tspan class="cls-24" x="358.48" y="0">a</tspan><tspan class="cls-8" x="370.81" y="0">t</tspan><tspan class="cls-25" x="380.24" y="0">t</tspan><tspan class="cls-19" x="389.32" y="0">e</tspan><tspan class="cls-8" x="400.39" y="0">s </tspan><tspan class="cls-19" x="414.28" y="0">an</tspan><tspan class="cls-8" x="439.74" y="0">d </tspan><tspan class="cls-8"><tspan class="cls-26" x="0" y="27.6">h</tspan><tspan x="12.72" y="27.6">o</tspan><tspan class="cls-26" x="24.56" y="27.6">s</tspan><tspan class="cls-27" x="34.34" y="27.6">t</tspan><tspan x="43.86" y="27.6">s </tspan><tspan class="cls-28" x="57.75" y="27.6">w</tspan><tspan class="cls-29" x="74.84" y="27.6">ee</tspan><tspan class="cls-30" x="96.88" y="27.6">k</tspan><tspan class="cls-31" x="109.23" y="27.6">l</tspan><tspan x="116.08" y="27.6">y </tspan><tspan class="cls-32" x="131.51" y="27.6">e</tspan><tspan class="cls-33" x="142.76" y="27.6">v</tspan><tspan class="cls-30" x="154.19" y="27.6">e</tspan><tspan class="cls-34" x="165.32" y="27.6">n</tspan><tspan class="cls-30" x="178.41" y="27.6">t</tspan><tspan x="187.93" y="27.6">s </tspan><tspan class="cls-35" x="201.82" y="27.6">t</tspan><tspan class="cls-30" x="211.18" y="27.6">h</tspan><tspan class="cls-36" x="223.95" y="27.6">a</tspan><tspan x="236.28" y="27.6">t </tspan><tspan class="cls-37" x="249.87" y="27.6">a</tspan><tspan x="262.2" y="27.6">t</tspan><tspan class="cls-38" x="271.63" y="27.6">t</tspan><tspan class="cls-39" x="281.12" y="27.6">r</tspan><tspan class="cls-37" x="290.67" y="27.6">a</tspan><tspan class="cls-40" x="303" y="27.6">c</tspan><tspan x="312.96" y="27.6">t </tspan><tspan class="cls-37" x="326.55" y="27.6">a</tspan><tspan class="cls-41" x="338.88" y="27.6">r</tspan><tspan class="cls-30" x="349.29" y="27.6">t</tspan><tspan class="cls-36" x="358.82" y="27.6">i</tspan><tspan class="cls-26" x="365.9" y="27.6">s</tspan><tspan class="cls-30" x="375.67" y="27.6">t</tspan><tspan x="385.2" y="27.6">s </tspan><tspan class="cls-36" x="399.09" y="27.6">an</tspan><tspan x="424.55" y="27.6">d</tspan></tspan><tspan class="cls-42"><tspan class="cls-43" x="0" y="55.2"> </tspan><tspan class="cls-44" x="4.16" y="55.2">l</tspan><tspan class="cls-45" x="10.88" y="55.2">o</tspan><tspan class="cls-46" x="22.72" y="55.2">c</tspan><tspan class="cls-47" x="32.52" y="55.2">a</tspan><tspan class="cls-48" x="44.85" y="55.2">l</tspan><tspan class="cls-43" x="51.8" y="55.2">s </tspan><tspan class="cls-49" x="65.69" y="55.2">w</tspan><tspan class="cls-50" x="82.94" y="55.2">h</tspan><tspan class="cls-43" x="95.66" y="55.2">o </tspan><tspan class="cls-51" x="111.66" y="55.2">w</tspan><tspan class="cls-47" x="128.75" y="55.2">a</tspan><tspan class="cls-52" x="141.08" y="55.2">n</tspan><tspan class="cls-43" x="154.17" y="55.2">t </tspan><tspan class="cls-53" x="167.76" y="55.2">t</tspan><tspan class="cls-43" x="176.87" y="55.2">o </tspan><tspan class="cls-54" x="192.88" y="55.2">b</tspan><tspan class="cls-55" x="205.34" y="55.2">r</tspan><tspan class="cls-43" x="214.84" y="55.2">o</tspan><tspan class="cls-56" x="226.69" y="55.2">a</tspan><tspan class="cls-57" x="239.01" y="55.2">d</tspan><tspan class="cls-58" x="251.41" y="55.2">c</tspan><tspan class="cls-59" x="261.21" y="55.2">a</tspan><tspan class="cls-50" x="273.72" y="55.2">s</tspan><tspan class="cls-43" x="283.49" y="55.2">t </tspan><tspan class="cls-58" x="297.09" y="55.2">t</tspan><tspan class="cls-60" x="306.45" y="55.2">h</tspan><tspan class="cls-61" x="319.1" y="55.2">e</tspan><tspan class="cls-62" x="330.23" y="55.2">ir </tspan><tspan class="cls-63" x="351.48" y="55.2">w</tspan><tspan class="cls-64" x="368.57" y="55.2">o</tspan><tspan class="cls-49" x="380.37" y="55.2">r</tspan><tspan class="cls-65" x="390.31" y="55.2">k</tspan><tspan class="cls-43" x="402.89" y="55.2">.</tspan><tspan class="cls-66" x="409.6" y="55.2">”</tspan></tspan><tspan class="cls-8"><tspan class="cls-67" x="0" y="82.8" xml:space="preserve">										</tspan><tspan x="360" y="82.8">- </tspan><tspan class="cls-68" x="372.37" y="82.8">A</tspan><tspan class="cls-69" x="387.32" y="82.8">F</tspan><tspan class="cls-31" x="399.35" y="82.8">A</tspan><tspan x="414.28" y="82.8">R</tspan></tspan></text></svg>